<?xml version="1.0" encoding="utf-8"?>
<!-- Generator: Adobe Illustrator 27.0.0, SVG Export Plug-In . SVG Version: 6.00 Build 0)  -->
<svg version="1.1" id="レイヤー_1" xmlns="http://www.w3.org/2000/svg" xmlns:xlink="http://www.w3.org/1999/xlink" x="0px"
	 y="0px" viewBox="0 0 1000 300" style="enable-background:new 0 0 1000 300;" xml:space="preserve">
<style type="text/css">
	.st0{fill:#FFFFFF;}
</style>
<g>
	<path class="st0" d="M30.58,188.9c-7.09-7.22-10.63-17.64-10.63-31.27c0-13.86,3.69-26.95,11.07-39.29c-2.23,2-4.33,3-6.32,3
		c-3.4,0-5.09-2.7-5.09-8.1c0-3.4,0.67-6.25,2.02-8.54c1.34-2.29,3.07-4.43,5.18-6.43c4.68-4.11,10.57-7.6,17.65-10.48
		c7.08-2.88,15.19-4.32,24.33-4.32c15.46,0,27.2,4.38,35.22,13.12c8.02,8.75,12.03,21.11,12.03,37.08c0,12.33-2.37,23.52-7.11,33.56
		c-4.74,10.04-11.39,17.97-19.94,23.78c-8.55,5.81-18.33,8.72-29.33,8.72C47.36,199.73,37.67,196.12,30.58,188.9z M83.54,175.77
		c5.62-2.82,10.22-7.25,13.79-13.3c3.57-6.05,5.36-13.59,5.36-22.64c0-8.46-1.61-15.41-4.83-20.88c-3.22-5.46-7.44-9.45-12.65-11.98
		c-5.21-2.52-10.86-3.79-16.95-3.79c-6.91,0-13.88,1.76-20.9,5.29c-3.63,5.52-6.65,11.63-9.05,18.32c-2.4,6.69-3.6,13.45-3.6,20.26
		c0,10.81,2.99,19,8.96,24.58S57.02,180,65.8,180C72.01,180,77.92,178.59,83.54,175.77z"/>
	<path class="st0" d="M133.96,195.15c3.04-12.45,4.57-22.61,4.57-30.48c0-5.87-0.35-10.31-1.05-13.3c-0.7-3-1.64-5.02-2.81-6.08
		c-1.17-1.06-2.87-2-5.09-2.82c-2.11-0.82-3.16-2.11-3.16-3.88c0-1.64,0.67-3.49,2.02-5.55c1.34-2.05,3.22-3.79,5.62-5.2
		c2.4-1.41,5.06-2.11,7.99-2.11c7.03,0,10.54,4.99,10.54,14.97c0,4.82-0.88,11.39-2.63,19.73l0.53,0.18
		c8.9-23.49,20.79-35.23,35.66-35.23c5.97,0,10.65,1.85,14.05,5.55c3.4,3.7,5.09,8.43,5.09,14.18c0,3.41-0.82,7.69-2.46,12.86
		c-1.41,4.46-2.11,8.4-2.11,11.8c0,6.81,3.16,11.33,9.49,13.57c1.64,0.7,2.46,1.76,2.46,3.17c0,1.41-0.41,3.11-1.23,5.11
		c-0.82,2-2.2,3.76-4.13,5.29s-4.54,2.29-7.82,2.29c-4.57,0-8.17-1.65-10.8-4.93c-2.63-3.29-3.95-7.58-3.95-12.86
		c0-3.99,0.99-9.75,2.99-17.26c1.29-5.64,1.93-9.34,1.93-11.1c0-5.4-2.81-8.1-8.43-8.1c-6.56,0-12.18,3.38-16.86,10.13
		c-4.69,6.75-8.49,15.12-11.42,25.1v4.23c0,4.46-1.23,8.08-3.69,10.83c-2.46,2.76-5.68,4.14-9.66,4.14
		C135.36,199.38,133.49,197.97,133.96,195.15z"/>
	<path class="st0" d="M236.45,188.9c-7.09-7.22-10.63-17.64-10.63-31.27c0-13.86,3.69-26.95,11.07-39.29c-2.23,2-4.33,3-6.32,3
		c-3.4,0-5.09-2.7-5.09-8.1c0-3.4,0.67-6.25,2.02-8.54c1.34-2.29,3.07-4.43,5.18-6.43c4.68-4.11,10.57-7.6,17.65-10.48
		c7.08-2.88,15.19-4.32,24.33-4.32c15.46,0,27.2,4.38,35.22,13.12c8.02,8.75,12.03,21.11,12.03,37.08c0,12.33-2.37,23.52-7.11,33.56
		c-4.74,10.04-11.39,17.97-19.94,23.78c-8.55,5.81-18.33,8.72-29.33,8.72C253.22,199.73,243.53,196.12,236.45,188.9z M289.41,175.77
		c5.62-2.82,10.22-7.25,13.79-13.3c3.57-6.05,5.36-13.59,5.36-22.64c0-8.46-1.61-15.41-4.83-20.88c-3.22-5.46-7.44-9.45-12.65-11.98
		c-5.21-2.52-10.86-3.79-16.95-3.79c-6.91,0-13.88,1.76-20.9,5.29c-3.63,5.52-6.65,11.63-9.05,18.32c-2.4,6.69-3.6,13.45-3.6,20.26
		c0,10.81,2.99,19,8.96,24.58s13.35,8.37,22.13,8.37C277.87,180,283.79,178.59,289.41,175.77z"/>
	<path class="st0" d="M340.96,229.68c-1.11-1.06-1.67-2.94-1.67-5.64c0-2.94,0.79-13.54,2.37-31.8c1.58-18.26,3.07-34.56,4.48-48.89
		c-2.7,0.24-4.86,0.47-6.5,0.7c-1.17,0.24-2.05,0.35-2.63,0.35c-1.29,0-2.2-0.73-2.72-2.2c-0.53-1.47-0.79-3.2-0.79-5.2
		c0-1.88,0.29-3.38,0.88-4.49c0.58-1.12,1.7-2.03,3.34-2.73c1.99-0.82,5.15-1.52,9.49-2.11c0.58-7.75,1.52-14.59,2.81-20.52
		c1.29-5.93,3.16-10.95,5.62-15.06c2.57-4.46,6.18-7.99,10.8-10.57c4.62-2.58,9.4-3.88,14.32-3.88c5.39,0,10.13,1.53,14.23,4.58
		c4.1,3.06,6.15,6.81,6.15,11.27c0,2.23-0.56,4.05-1.67,5.46c-1.11,1.41-2.37,2.11-3.78,2.11c-0.82,0-2.17-0.35-4.04-1.06
		c-3.51-1.41-7.2-2.11-11.07-2.11c-6.44,0-11.07,2.41-13.88,7.22c-2.81,4.82-4.86,11.98-6.15,21.49c6.56-0.7,11.48-1.06,14.75-1.06
		c3.04,0,5.3,0.47,6.76,1.41c1.46,0.94,2.2,2.58,2.2,4.93c0,2.7-0.68,5.58-2.02,8.63c-1.35,3.06-2.96,4.58-4.83,4.58
		c-0.59,0-1.58-0.18-2.99-0.53c-5.39-0.94-10.48-1.47-15.28-1.59c-1.05,12.22-1.58,24.31-1.58,36.29c0,12.45,0.7,23.25,2.11,32.42
		c0.47,2.82,0.7,5.11,0.7,6.87c0,4.58-1.49,7.84-4.48,9.78c-2.99,1.94-6.3,2.91-9.92,2.91
		C343.74,231.26,342.07,230.74,340.96,229.68z"/>
	<path class="st0" d="M394.71,229.68c-1.11-1.06-1.67-2.94-1.67-5.64c0-2.94,0.79-13.54,2.37-31.8c1.58-18.26,3.07-34.56,4.48-48.89
		c-2.7,0.24-4.86,0.47-6.5,0.7c-1.17,0.24-2.05,0.35-2.63,0.35c-1.29,0-2.2-0.73-2.72-2.2c-0.53-1.47-0.79-3.2-0.79-5.2
		c0-1.88,0.29-3.38,0.88-4.49c0.58-1.12,1.7-2.03,3.34-2.73c1.99-0.82,5.15-1.52,9.49-2.11c0.58-7.75,1.52-14.59,2.81-20.52
		c1.29-5.93,3.16-10.95,5.62-15.06c2.57-4.46,6.18-7.99,10.8-10.57c4.62-2.58,9.4-3.88,14.32-3.88c5.39,0,10.13,1.53,14.23,4.58
		c4.1,3.06,6.15,6.81,6.15,11.27c0,2.23-0.56,4.05-1.67,5.46c-1.11,1.41-2.37,2.11-3.78,2.11c-0.82,0-2.17-0.35-4.04-1.06
		c-3.51-1.41-7.2-2.11-11.07-2.11c-6.44,0-11.07,2.41-13.88,7.22c-2.81,4.82-4.86,11.98-6.15,21.49c6.56-0.7,11.48-1.06,14.75-1.06
		c3.04,0,5.3,0.47,6.76,1.41c1.46,0.94,2.2,2.58,2.2,4.93c0,2.7-0.68,5.58-2.02,8.63c-1.35,3.06-2.96,4.58-4.83,4.58
		c-0.59,0-1.58-0.18-2.99-0.53c-5.39-0.94-10.48-1.47-15.28-1.59c-1.05,12.22-1.58,24.31-1.58,36.29c0,12.45,0.7,23.25,2.11,32.42
		c0.47,2.82,0.7,5.11,0.7,6.87c0,4.58-1.49,7.84-4.48,9.78c-2.99,1.94-6.3,2.91-9.92,2.91
		C397.49,231.26,395.82,230.74,394.71,229.68z"/>
	<path class="st0" d="M501.16,194.36c-4.28-3.58-6.41-8.9-6.41-15.94c0-3.17,0.58-8.57,1.76-16.21c2.11-12.92,3.16-24.37,3.16-34.35
		c0-7.63-0.32-13.59-0.97-17.88c-0.65-4.29-2.14-8.37-4.48-12.24c-1.17-1.88-1.76-3.23-1.76-4.05c0-1.41,0.79-2.88,2.37-4.4
		c1.58-1.52,3.57-2.82,5.97-3.88c2.4-1.06,4.66-1.59,6.76-1.59c3.75,0,6.17,1.41,7.29,4.23c1.11,2.82,1.67,7.52,1.67,14.09
		c0,3.52-0.94,13.27-2.81,29.24c-1.87,14.21-2.81,24.72-2.81,31.53c0,4.82,0.55,8.43,1.67,10.83c1.11,2.41,2.96,4.02,5.53,4.84
		c2.57,0.94,6.21,1.41,10.89,1.41c10.42,0,19.67-1.82,27.75-5.46c1.41-0.47,2.34-0.71,2.81-0.71c1.17,0,2.2,0.68,3.07,2.03
		c0.88,1.35,1.32,3.14,1.32,5.37c0,5.17-2.81,9.22-8.43,12.16c-7.5,4.23-17.8,6.34-30.92,6.34
		C513.25,199.73,505.43,197.94,501.16,194.36z"/>
	<path class="st0" d="M580.55,193.04c-4.74-4.46-7.11-10.92-7.11-19.38c0-7.87,2.05-15.27,6.15-22.2c-1.88,1.18-3.28,1.76-4.22,1.76
		c-1.29,0-2.23-0.73-2.81-2.2c-0.59-1.47-0.88-3.08-0.88-4.84c0-3.99,1.64-7.34,4.92-10.04c3.16-2.7,7.41-5.17,12.74-7.4
		c5.33-2.23,11.27-3.35,17.83-3.35c10.07,0,17.89,2.82,23.45,8.46c5.56,5.64,8.34,13.51,8.34,23.61c0,7.87-1.64,15.03-4.92,21.49
		c-3.28,6.46-7.88,11.54-13.79,15.24c-5.91,3.7-12.62,5.55-20.11,5.55C591.82,199.73,585.3,197.5,580.55,193.04z M620.51,176.12
		c3.98-3.76,5.97-8.63,5.97-14.62c0-5.99-1.93-10.42-5.8-13.3c-3.86-2.88-8.73-4.32-14.58-4.32c-4.1,0-8.2,0.82-12.3,2.47
		c-4.21,5.99-6.32,11.86-6.32,17.62c0,5.64,1.7,10.01,5.09,13.12c3.4,3.11,7.73,4.67,13,4.67
		C611.56,181.76,616.53,179.88,620.51,176.12z"/>
	<path class="st0" d="M660.83,194.62c-3.22-3.4-4.83-8.34-4.83-14.8c0-4.58,0.64-9.28,1.93-14.09c1.29-4.93,1.93-8.92,1.93-11.98
		c0-5.17-1.58-8.51-4.74-10.04c-1.64-0.94-2.81-1.79-3.51-2.55c-0.7-0.76-1.05-1.67-1.05-2.73c0-2.82,1.67-5.55,5.01-8.19
		c3.34-2.64,6.76-3.96,10.28-3.96c6.68,0,10.01,5.46,10.01,16.38c0,5.64-0.88,11.75-2.63,18.32c-1.05,4.7-1.58,8.22-1.58,10.57
		c0,5.87,2.87,8.81,8.61,8.81c5.38,0,10.42-2.88,15.11-8.63c4.68-5.75,8.55-13.8,11.59-24.14l-0.17-3.35
		c-0.24-5.75,0.79-10.19,3.07-13.3c2.28-3.11,5.65-4.67,10.1-4.67c3.86,0,5.8,1.23,5.8,3.7c0,1.29-0.59,3.88-1.76,7.75
		c-2.81,10.1-4.22,19.2-4.22,27.31c0,4.93,0.76,8.81,2.28,11.63c1.52,2.82,4.1,4.76,7.73,5.81c1.17,0.24,2.05,0.62,2.63,1.14
		c0.58,0.53,0.88,1.56,0.88,3.08c0,3.06-1.26,5.87-3.78,8.46c-2.52,2.58-5.83,3.88-9.92,3.88c-8.55,0-12.82-6.05-12.82-18.15
		c0-2.11,0.17-5.29,0.53-9.51l-0.35-0.18c-3.63,9.28-8.2,16.36-13.7,21.23c-5.5,4.88-11.77,7.31-18.79,7.31
		C668.58,199.73,664.05,198.03,660.83,194.62z"/>
	<path class="st0" d="M747.51,195.15c3.04-12.45,4.57-22.61,4.57-30.48c0-5.87-0.35-10.31-1.05-13.3c-0.7-3-1.64-5.02-2.81-6.08
		c-1.17-1.06-2.87-2-5.09-2.82c-2.11-0.82-3.16-2.11-3.16-3.88c0-1.64,0.67-3.49,2.02-5.55c1.34-2.05,3.22-3.79,5.62-5.2
		c2.4-1.41,5.06-2.11,7.99-2.11c7.03,0,10.54,4.99,10.54,14.97c0,4.82-0.88,11.39-2.63,19.73l0.53,0.18
		c8.9-23.49,20.79-35.23,35.66-35.23c5.97,0,10.65,1.85,14.05,5.55c3.39,3.7,5.09,8.43,5.09,14.18c0,3.41-0.82,7.69-2.46,12.86
		c-1.41,4.46-2.11,8.4-2.11,11.8c0,6.81,3.16,11.33,9.49,13.57c1.64,0.7,2.46,1.76,2.46,3.17c0,1.41-0.41,3.11-1.23,5.11
		c-0.82,2-2.2,3.76-4.13,5.29c-1.93,1.52-4.54,2.29-7.82,2.29c-4.57,0-8.17-1.65-10.8-4.93c-2.63-3.29-3.95-7.58-3.95-12.86
		c0-3.99,0.99-9.75,2.99-17.26c1.29-5.64,1.93-9.34,1.93-11.1c0-5.4-2.81-8.1-8.43-8.1c-6.56,0-12.18,3.38-16.86,10.13
		c-4.69,6.75-8.49,15.12-11.42,25.1v4.23c0,4.46-1.23,8.08-3.69,10.83s-5.68,4.14-9.66,4.14
		C748.92,199.38,747.04,197.97,747.51,195.15z"/>
	<path class="st0" d="M839.47,240.69c-5.21-3.58-7.82-8.31-7.82-14.18c0-4.35,1.35-8.13,4.04-11.36c2.69-3.23,6.15-4.84,10.36-4.84
		c2.46,0,3.69,0.7,3.69,2.11c0,0.59-0.15,1.56-0.44,2.91c-0.29,1.35-0.44,2.38-0.44,3.08c0,3.17,1.78,5.58,5.36,7.22
		c3.57,1.64,8.17,2.47,13.79,2.47c5.74,0,10.83-0.85,15.28-2.55c4.45-1.7,6.67-4.26,6.67-7.66c0-3.17-1.88-5.4-5.62-6.69
		c-3.75-1.29-9.25-2.41-16.51-3.35c-0.82-0.12-3.05-0.44-6.67-0.97c-3.63-0.53-6.62-1.26-8.96-2.2c-3.98-1.29-6.88-2.91-8.69-4.84
		c-1.82-1.94-2.72-4.32-2.72-7.13c0-5.52,3.34-9.92,10.01-13.21c-3.75-2-6.62-4.78-8.61-8.37c-1.99-3.58-2.99-7.66-2.99-12.24
		c0-5.87,1.52-11.36,4.57-16.47c3.04-5.11,7.58-9.22,13.61-12.33c6.03-3.11,13.32-4.67,21.87-4.67c7.26,0,13.5,1.09,18.71,3.26
		c5.21,2.17,7.82,5.84,7.82,11.01c0,1.76-0.32,3.41-0.97,4.93c-0.65,1.53-1.73,2.29-3.25,2.29c-1.29,0-3.28-0.41-5.97-1.23
		c0.58,2.7,0.88,5.46,0.88,8.28c0,7.28-2.43,13.62-7.29,19.03c-4.86,5.4-11.62,8.63-20.29,9.69c-3.51,0.24-6,0.62-7.46,1.14
		c-1.47,0.53-2.2,1.44-2.2,2.73c0,1.18,0.62,2,1.84,2.47c1.23,0.47,3.13,0.88,5.71,1.23c8.08,0.7,14.69,1.79,19.85,3.26
		c5.15,1.47,9.22,3.76,12.21,6.87c2.99,3.11,4.48,7.43,4.48,12.95c0,6.46-1.93,12.18-5.8,17.18c-3.86,4.99-9.11,8.84-15.72,11.54
		c-6.62,2.7-13.79,4.05-21.52,4.05C851.61,246.06,844.68,244.27,839.47,240.69z M879.52,162.91c3.1-2.93,4.66-6.75,4.66-11.45
		c0-2.35-0.35-4.81-1.05-7.4c-3.28-0.94-6.79-1.41-10.54-1.41c-6.21,0-11.07,1.18-14.58,3.52c-3.51,2.35-5.27,5.58-5.27,9.69
		c0,3.52,1.29,6.31,3.86,8.37c2.57,2.06,6.03,3.08,10.36,3.08C872.23,167.32,876.41,165.85,879.52,162.91z"/>
	<path class="st0" d="M922.38,192.07c-4.98-5.11-7.46-12.24-7.46-21.4c0-8.1,1.81-15.62,5.45-22.55
		c3.63-6.93,8.55-12.42,14.75-16.47c6.21-4.05,12.94-6.08,20.2-6.08c7.03,0,12.65,1.73,16.86,5.2c4.22,3.47,6.32,8.08,6.32,13.83
		c0,4.58-1.41,8.81-4.22,12.68s-6.59,6.96-11.33,9.25c-4.74,2.29-9.92,3.44-15.55,3.44c-3.28,0-6.44-0.41-9.49-1.23
		c-3.05-0.82-5.62-2-7.73-3.52c0.12,5.4,1.96,9.75,5.53,13.04c3.57,3.29,8.17,4.93,13.79,4.93c3.4,0,6.88-0.62,10.45-1.85
		c3.57-1.23,6.64-2.91,9.22-5.02c1.64-1.41,3.16-2.11,4.57-2.11c1.17,0,2.13,0.38,2.9,1.15c0.76,0.76,1.14,1.73,1.14,2.91
		c0,2.58-2.23,5.99-6.67,10.22c-7.85,7.52-17.16,11.27-27.93,11.27C934.29,199.73,927.35,197.18,922.38,192.07z M956.36,155.69
		c2.81-1.76,4.22-3.99,4.22-6.69c0-2.23-0.94-3.96-2.81-5.2c-1.87-1.23-4.45-1.85-7.73-1.85c-4.45,0-8.26,1.15-11.42,3.44
		c-3.16,2.29-5.45,5.49-6.85,9.6c1.64,1.06,3.75,1.88,6.32,2.47c2.57,0.59,5.15,0.88,7.73,0.88
		C950.04,158.33,953.55,157.45,956.36,155.69z"/>
</g>
</svg>
